<?xml version="1.0" encoding="iso-8859-1"?>
<!-- Uploaded to: SVG Repo, www.svgrepo.com, Generator: SVG Repo Mixer Tools -->
<svg version="1.1" id="Layer_1" xmlns="http://www.w3.org/2000/svg" xmlns:xlink="http://www.w3.org/1999/xlink" 
	 viewBox="0 0 512 512" xml:space="preserve">
<path style="fill:#E6563A;" d="M495.304,439.652H16.696C7.479,439.652,0,432.174,0,422.957v-66.783
	c0-9.217,7.479-16.696,16.696-16.696h16.696v-33.391H16.696C7.479,306.087,0,298.608,0,289.391v-66.783
	c0-9.217,7.479-16.696,16.696-16.696h16.696v-33.391H16.696C7.479,172.522,0,165.043,0,155.826V89.043
	c0-9.217,7.479-16.696,16.696-16.696h478.609c9.217,0,16.696,7.479,16.696,16.696v66.783c0,9.217-7.479,16.696-16.696,16.696
	h-16.696v33.391h16.696c9.217,0,16.696,7.479,16.696,16.696v66.783c0,9.217-7.479,16.696-16.696,16.696h-16.696v33.391h16.696
	c9.217,0,16.696,7.479,16.696,16.696v66.783C512,432.174,504.521,439.652,495.304,439.652z"/>
<path style="fill:#D9472B;" d="M495.304,72.348H256v367.304h239.304c9.217,0,16.696-7.479,16.696-16.696v-66.783
	c0-9.217-7.479-16.696-16.696-16.696h-16.696v-33.391h16.696c9.217,0,16.696-7.479,16.696-16.696v-66.783
	c0-9.217-7.479-16.696-16.696-16.696h-16.696v-33.391h16.696c9.217,0,16.696-7.479,16.696-16.696V89.043
	C512,79.826,504.521,72.348,495.304,72.348z"/>
<path style="fill:#FFDFB3;" d="M361.739,372.87H150.261c-27.619,0-50.087-22.468-50.087-50.087V189.217
	c0-27.619,22.468-50.087,50.087-50.087h211.478c27.619,0,50.087,22.468,50.087,50.087v133.565
	C411.826,350.402,389.358,372.87,361.739,372.87z"/>
<path style="fill:#FFCC99;" d="M361.739,139.13H256V372.87h105.739c27.619,0,50.087-22.468,50.087-50.087V189.217
	C411.826,161.598,389.358,139.13,361.739,139.13z"/>
<rect x="166.957" y="139.13" style="fill:#E6563A;" width="33.391" height="233.739"/>
<rect x="311.652" y="139.13" style="fill:#D9472B;" width="33.391" height="233.739"/>
</svg>